<svg id="visual" viewBox="0 0 900 450" width="900" height="450" xmlns="http://www.w3.org/2000/svg" xmlns:xlink="http://www.w3.org/1999/xlink" version="1.1"><g stroke-width="1" stroke-linejoin="bevel"><path d="M434 219L510 278L498 195Z" fill="#518b42" stroke="#FFFFFF"></path><path d="M434 219L467 349L510 278Z" fill="#c7314d" stroke="#FFFFFF"></path><path d="M588 302L586 213L510 278Z" fill="#c14336" stroke="#FFFFFF"></path><path d="M510 278L586 213L498 195Z" fill="#b55521" stroke="#FFFFFF"></path><path d="M360 115L360 237L434 219Z" fill="#36905a" stroke="#FFFFFF"></path><path d="M434 219L360 237L467 349Z" fill="#518b42" stroke="#FFFFFF"></path><path d="M467 349L588 302L510 278Z" fill="#c14336" stroke="#FFFFFF"></path><path d="M602 121L499 113L498 195Z" fill="#009473" stroke="#FFFFFF"></path><path d="M498 195L499 113L434 219Z" fill="#92710a" stroke="#FFFFFF"></path><path d="M360 237L365 364L467 349Z" fill="#a56410" stroke="#FFFFFF"></path><path d="M672 168L602 121L586 213Z" fill="#7e7c17" stroke="#FFFFFF"></path><path d="M586 213L602 121L498 195Z" fill="#c62368" stroke="#FFFFFF"></path><path d="M504 450L623 333L588 302Z" fill="#c14336" stroke="#FFFFFF"></path><path d="M588 302L663 281L586 213Z" fill="#c14336" stroke="#FFFFFF"></path><path d="M504 450L588 302L467 349Z" fill="#68842b" stroke="#FFFFFF"></path><path d="M499 113L360 115L434 219Z" fill="#36905a" stroke="#FFFFFF"></path><path d="M623 333L663 281L588 302Z" fill="#36905a" stroke="#FFFFFF"></path><path d="M360 115L290 196L360 237Z" fill="#c7314d" stroke="#FFFFFF"></path><path d="M360 237L303 352L365 364Z" fill="#7e7c17" stroke="#FFFFFF"></path><path d="M290 196L284 241L360 237Z" fill="#c62368" stroke="#FFFFFF"></path><path d="M663 281L672 168L586 213Z" fill="#68842b" stroke="#FFFFFF"></path><path d="M284 241L303 352L360 237Z" fill="#c7314d" stroke="#FFFFFF"></path><path d="M382 450L467 349L365 364Z" fill="#7e7c17" stroke="#FFFFFF"></path><path d="M382 450L504 450L467 349Z" fill="#7e7c17" stroke="#FFFFFF"></path><path d="M303 352L382 450L365 364Z" fill="#c62368" stroke="#FFFFFF"></path><path d="M379 0L311 70L360 115Z" fill="#7e7c17" stroke="#FFFFFF"></path><path d="M360 115L311 70L290 196Z" fill="#a56410" stroke="#FFFFFF"></path><path d="M478 0L360 115L499 113Z" fill="#b55521" stroke="#FFFFFF"></path><path d="M609 0L478 0L499 113Z" fill="#b55521" stroke="#FFFFFF"></path><path d="M609 0L499 113L602 121Z" fill="#c62368" stroke="#FFFFFF"></path><path d="M623 333L691 363L663 281Z" fill="#7e7c17" stroke="#FFFFFF"></path><path d="M663 281L780 280L672 168Z" fill="#a56410" stroke="#FFFFFF"></path><path d="M634 450L691 363L623 333Z" fill="#c62368" stroke="#FFFFFF"></path><path d="M284 241L234 286L303 352Z" fill="#b55521" stroke="#FFFFFF"></path><path d="M303 352L261 450L382 450Z" fill="#c62368" stroke="#FFFFFF"></path><path d="M178 170L234 286L284 241Z" fill="#7e7c17" stroke="#FFFFFF"></path><path d="M178 170L284 241L290 196Z" fill="#92710a" stroke="#FFFFFF"></path><path d="M478 0L379 0L360 115Z" fill="#36905a" stroke="#FFFFFF"></path><path d="M504 450L634 450L623 333Z" fill="#a56410" stroke="#FFFFFF"></path><path d="M766 111L678 65L672 168Z" fill="#c7314d" stroke="#FFFFFF"></path><path d="M672 168L678 65L602 121Z" fill="#a56410" stroke="#FFFFFF"></path><path d="M678 65L609 0L602 121Z" fill="#7e7c17" stroke="#FFFFFF"></path><path d="M234 286L239 399L303 352Z" fill="#b55521" stroke="#FFFFFF"></path><path d="M379 0L318 0L311 70Z" fill="#36905a" stroke="#FFFFFF"></path><path d="M192 100L178 170L290 196Z" fill="#7e7c17" stroke="#FFFFFF"></path><path d="M634 450L682 450L691 363Z" fill="#009473" stroke="#FFFFFF"></path><path d="M239 399L261 450L303 352Z" fill="#c7314d" stroke="#FFFFFF"></path><path d="M825 328L780 280L691 363Z" fill="#009473" stroke="#FFFFFF"></path><path d="M691 363L780 280L663 281Z" fill="#68842b" stroke="#FFFFFF"></path><path d="M192 100L290 196L311 70Z" fill="#c7314d" stroke="#FFFFFF"></path><path d="M134 339L190 450L239 399Z" fill="#009473" stroke="#FFFFFF"></path><path d="M791 192L766 111L672 168Z" fill="#92710a" stroke="#FFFFFF"></path><path d="M678 65L702 0L609 0Z" fill="#92710a" stroke="#FFFFFF"></path><path d="M780 280L791 192L672 168Z" fill="#36905a" stroke="#FFFFFF"></path><path d="M236 0L192 100L311 70Z" fill="#518b42" stroke="#FFFFFF"></path><path d="M766 111L702 0L678 65Z" fill="#b55521" stroke="#FFFFFF"></path><path d="M318 0L236 0L311 70Z" fill="#68842b" stroke="#FFFFFF"></path><path d="M134 339L239 399L234 286Z" fill="#c7314d" stroke="#FFFFFF"></path><path d="M239 399L190 450L261 450Z" fill="#68842b" stroke="#FFFFFF"></path><path d="M800 450L825 328L691 363Z" fill="#c7314d" stroke="#FFFFFF"></path><path d="M780 280L900 249L791 192Z" fill="#c14336" stroke="#FFFFFF"></path><path d="M91 295L134 339L234 286Z" fill="#7e7c17" stroke="#FFFFFF"></path><path d="M91 295L234 286L178 170Z" fill="#68842b" stroke="#FFFFFF"></path><path d="M682 450L800 450L691 363Z" fill="#92710a" stroke="#FFFFFF"></path><path d="M76 169L91 295L178 170Z" fill="#c7314d" stroke="#FFFFFF"></path><path d="M134 339L78 450L190 450Z" fill="#c14336" stroke="#FFFFFF"></path><path d="M76 169L178 170L108 62Z" fill="#7e7c17" stroke="#FFFFFF"></path><path d="M108 62L178 170L192 100Z" fill="#68842b" stroke="#FFFFFF"></path><path d="M236 0L108 62L192 100Z" fill="#7e7c17" stroke="#FFFFFF"></path><path d="M900 397L900 249L825 328Z" fill="#c62368" stroke="#FFFFFF"></path><path d="M825 328L900 249L780 280Z" fill="#009473" stroke="#FFFFFF"></path><path d="M791 192L900 60L766 111Z" fill="#68842b" stroke="#FFFFFF"></path><path d="M766 111L826 0L702 0Z" fill="#009473" stroke="#FFFFFF"></path><path d="M900 249L900 215L791 192Z" fill="#7e7c17" stroke="#FFFFFF"></path><path d="M900 60L826 0L766 111Z" fill="#7e7c17" stroke="#FFFFFF"></path><path d="M800 450L900 397L825 328Z" fill="#b55521" stroke="#FFFFFF"></path><path d="M236 0L98 0L108 62Z" fill="#68842b" stroke="#FFFFFF"></path><path d="M0 127L0 147L76 169Z" fill="#009473" stroke="#FFFFFF"></path><path d="M0 366L134 339L91 295Z" fill="#36905a" stroke="#FFFFFF"></path><path d="M0 366L78 450L134 339Z" fill="#b55521" stroke="#FFFFFF"></path><path d="M900 215L900 60L791 192Z" fill="#92710a" stroke="#FFFFFF"></path><path d="M800 450L900 450L900 397Z" fill="#92710a" stroke="#FFFFFF"></path><path d="M76 169L0 292L91 295Z" fill="#c62368" stroke="#FFFFFF"></path><path d="M0 147L0 292L76 169Z" fill="#c14336" stroke="#FFFFFF"></path><path d="M900 60L900 0L826 0Z" fill="#92710a" stroke="#FFFFFF"></path><path d="M0 127L76 169L108 62Z" fill="#36905a" stroke="#FFFFFF"></path><path d="M0 0L0 127L108 62Z" fill="#c62368" stroke="#FFFFFF"></path><path d="M0 292L0 366L91 295Z" fill="#92710a" stroke="#FFFFFF"></path><path d="M0 366L0 450L78 450Z" fill="#a56410" stroke="#FFFFFF"></path><path d="M98 0L0 0L108 62Z" fill="#36905a" stroke="#FFFFFF"></path></g></svg>