<svg id="visual" viewBox="0 0 900 600" width="900" height="600" xmlns="http://www.w3.org/2000/svg" xmlns:xlink="http://www.w3.org/1999/xlink" version="1.1"><g stroke-width="1" stroke-linejoin="bevel"><path d="M478 272L460 226L401 301Z" fill="#006451" stroke="#006451"></path><path d="M460 226L374 224L401 301Z" fill="#83d146" stroke="#83d146"></path><path d="M419 91L330 206L374 224Z" fill="#a5e139" stroke="#a5e139"></path><path d="M374 224L297 296L401 301Z" fill="#caf127" stroke="#caf127"></path><path d="M330 206L297 296L374 224Z" fill="#006451" stroke="#006451"></path><path d="M389 430L516 380L401 301Z" fill="#caf127" stroke="#caf127"></path><path d="M401 301L516 380L478 272Z" fill="#46ae56" stroke="#46ae56"></path><path d="M478 272L564 176L460 226Z" fill="#006451" stroke="#006451"></path><path d="M460 226L419 91L374 224Z" fill="#0b8959" stroke="#0b8959"></path><path d="M587 327L564 176L478 272Z" fill="#007757" stroke="#007757"></path><path d="M564 176L496 116L460 226Z" fill="#a5e139" stroke="#a5e139"></path><path d="M516 380L587 327L478 272Z" fill="#a5e139" stroke="#a5e139"></path><path d="M338 408L389 430L401 301Z" fill="#63c050" stroke="#63c050"></path><path d="M297 296L338 408L401 301Z" fill="#83d146" stroke="#83d146"></path><path d="M496 116L419 91L460 226Z" fill="#007757" stroke="#007757"></path><path d="M205 109L227 222L330 206Z" fill="#a5e139" stroke="#a5e139"></path><path d="M330 206L227 222L297 296Z" fill="#caf127" stroke="#caf127"></path><path d="M297 296L194 329L338 408Z" fill="#007757" stroke="#007757"></path><path d="M419 91L324 69L330 206Z" fill="#83d146" stroke="#83d146"></path><path d="M286 485L362 479L338 408Z" fill="#007757" stroke="#007757"></path><path d="M338 408L362 479L389 430Z" fill="#63c050" stroke="#63c050"></path><path d="M389 430L473 518L516 380Z" fill="#005248" stroke="#005248"></path><path d="M721 221L609 103L564 176Z" fill="#caf127" stroke="#caf127"></path><path d="M564 176L609 103L496 116Z" fill="#005248" stroke="#005248"></path><path d="M486 0L423 0L419 91Z" fill="#0b8959" stroke="#0b8959"></path><path d="M419 91L423 0L324 69Z" fill="#0b8959" stroke="#0b8959"></path><path d="M227 222L194 329L297 296Z" fill="#a5e139" stroke="#a5e139"></path><path d="M660 363L679 264L587 327Z" fill="#63c050" stroke="#63c050"></path><path d="M587 327L679 264L564 176Z" fill="#007757" stroke="#007757"></path><path d="M638 417L587 327L516 380Z" fill="#005248" stroke="#005248"></path><path d="M638 417L660 363L587 327Z" fill="#83d146" stroke="#83d146"></path><path d="M629 502L638 417L516 380Z" fill="#63c050" stroke="#63c050"></path><path d="M362 479L473 518L389 430Z" fill="#a5e139" stroke="#a5e139"></path><path d="M486 0L419 91L496 116Z" fill="#0b8959" stroke="#0b8959"></path><path d="M166 423L286 485L338 408Z" fill="#caf127" stroke="#caf127"></path><path d="M362 479L365 600L473 518Z" fill="#0b8959" stroke="#0b8959"></path><path d="M605 0L486 0L496 116Z" fill="#83d146" stroke="#83d146"></path><path d="M324 69L205 109L330 206Z" fill="#006451" stroke="#006451"></path><path d="M227 222L112 273L194 329Z" fill="#006451" stroke="#006451"></path><path d="M268 0L205 109L324 69Z" fill="#63c050" stroke="#63c050"></path><path d="M836 338L721 221L679 264Z" fill="#006451" stroke="#006451"></path><path d="M679 264L721 221L564 176Z" fill="#46ae56" stroke="#46ae56"></path><path d="M836 338L679 264L660 363Z" fill="#2a9c59" stroke="#2a9c59"></path><path d="M139 422L166 423L194 329Z" fill="#a5e139" stroke="#a5e139"></path><path d="M194 329L166 423L338 408Z" fill="#63c050" stroke="#63c050"></path><path d="M473 518L629 502L516 380Z" fill="#005248" stroke="#005248"></path><path d="M638 417L821 416L660 363Z" fill="#caf127" stroke="#caf127"></path><path d="M423 0L268 0L324 69Z" fill="#caf127" stroke="#caf127"></path><path d="M693 0L605 0L609 103Z" fill="#2a9c59" stroke="#2a9c59"></path><path d="M609 103L605 0L496 116Z" fill="#0b8959" stroke="#0b8959"></path><path d="M88 195L112 273L227 222Z" fill="#63c050" stroke="#63c050"></path><path d="M166 423L220 520L286 485Z" fill="#83d146" stroke="#83d146"></path><path d="M286 485L365 600L362 479Z" fill="#007757" stroke="#007757"></path><path d="M112 273L139 422L194 329Z" fill="#f2ff00" stroke="#f2ff00"></path><path d="M166 423L139 422L220 520Z" fill="#83d146" stroke="#83d146"></path><path d="M721 221L736 121L609 103Z" fill="#0b8959" stroke="#0b8959"></path><path d="M660 600L677 498L629 502Z" fill="#83d146" stroke="#83d146"></path><path d="M629 502L677 498L638 417Z" fill="#a5e139" stroke="#a5e139"></path><path d="M271 600L365 600L286 485Z" fill="#caf127" stroke="#caf127"></path><path d="M473 518L513 600L629 502Z" fill="#caf127" stroke="#caf127"></path><path d="M365 600L513 600L473 518Z" fill="#83d146" stroke="#83d146"></path><path d="M92 74L88 195L205 109Z" fill="#006451" stroke="#006451"></path><path d="M205 109L88 195L227 222Z" fill="#f2ff00" stroke="#f2ff00"></path><path d="M112 273L0 330L139 422Z" fill="#005248" stroke="#005248"></path><path d="M268 0L199 0L205 109Z" fill="#005248" stroke="#005248"></path><path d="M736 121L693 0L609 103Z" fill="#007757" stroke="#007757"></path><path d="M220 520L271 600L286 485Z" fill="#caf127" stroke="#caf127"></path><path d="M186 600L271 600L220 520Z" fill="#007757" stroke="#007757"></path><path d="M513 600L619 600L629 502Z" fill="#005248" stroke="#005248"></path><path d="M199 0L92 74L205 109Z" fill="#0b8959" stroke="#0b8959"></path><path d="M619 600L660 600L629 502Z" fill="#2a9c59" stroke="#2a9c59"></path><path d="M833 174L797 80L736 121Z" fill="#0b8959" stroke="#0b8959"></path><path d="M736 121L797 80L693 0Z" fill="#005248" stroke="#005248"></path><path d="M833 174L736 121L721 221Z" fill="#2a9c59" stroke="#2a9c59"></path><path d="M836 338L660 363L821 416Z" fill="#46ae56" stroke="#46ae56"></path><path d="M821 416L638 417L677 498Z" fill="#005248" stroke="#005248"></path><path d="M836 338L833 174L721 221Z" fill="#f2ff00" stroke="#f2ff00"></path><path d="M116 600L186 600L220 520Z" fill="#006451" stroke="#006451"></path><path d="M790 503L821 416L677 498Z" fill="#63c050" stroke="#63c050"></path><path d="M775 600L790 503L677 498Z" fill="#83d146" stroke="#83d146"></path><path d="M0 183L0 330L112 273Z" fill="#63c050" stroke="#63c050"></path><path d="M139 422L65 526L220 520Z" fill="#83d146" stroke="#83d146"></path><path d="M0 183L112 273L88 195Z" fill="#f2ff00" stroke="#f2ff00"></path><path d="M92 74L0 183L88 195Z" fill="#006451" stroke="#006451"></path><path d="M0 330L0 382L139 422Z" fill="#63c050" stroke="#63c050"></path><path d="M0 382L65 526L139 422Z" fill="#63c050" stroke="#63c050"></path><path d="M199 0L62 0L92 74Z" fill="#0b8959" stroke="#0b8959"></path><path d="M92 74L0 83L0 183Z" fill="#f2ff00" stroke="#f2ff00"></path><path d="M65 526L116 600L220 520Z" fill="#006451" stroke="#006451"></path><path d="M62 0L0 83L92 74Z" fill="#2a9c59" stroke="#2a9c59"></path><path d="M900 380L900 306L836 338Z" fill="#a5e139" stroke="#a5e139"></path><path d="M836 338L900 306L833 174Z" fill="#007757" stroke="#007757"></path><path d="M900 60L823 0L797 80Z" fill="#46ae56" stroke="#46ae56"></path><path d="M900 380L836 338L821 416Z" fill="#005248" stroke="#005248"></path><path d="M900 60L797 80L833 174Z" fill="#006451" stroke="#006451"></path><path d="M797 80L823 0L693 0Z" fill="#63c050" stroke="#63c050"></path><path d="M900 306L900 194L833 174Z" fill="#006451" stroke="#006451"></path><path d="M660 600L775 600L677 498Z" fill="#46ae56" stroke="#46ae56"></path><path d="M900 520L900 380L821 416Z" fill="#007757" stroke="#007757"></path><path d="M900 520L821 416L790 503Z" fill="#46ae56" stroke="#46ae56"></path><path d="M62 0L0 0L0 83Z" fill="#83d146" stroke="#83d146"></path><path d="M0 382L0 532L65 526Z" fill="#a5e139" stroke="#a5e139"></path><path d="M65 526L0 600L116 600Z" fill="#2a9c59" stroke="#2a9c59"></path><path d="M900 194L900 60L833 174Z" fill="#f2ff00" stroke="#f2ff00"></path><path d="M900 600L900 520L790 503Z" fill="#f2ff00" stroke="#f2ff00"></path><path d="M900 60L900 0L823 0Z" fill="#f2ff00" stroke="#f2ff00"></path><path d="M0 532L0 600L65 526Z" fill="#83d146" stroke="#83d146"></path><path d="M775 600L900 600L790 503Z" fill="#63c050" stroke="#63c050"></path></g></svg>