<svg id="visual" viewBox="0 0 900 600" width="900" height="600" xmlns="http://www.w3.org/2000/svg" xmlns:xlink="http://www.w3.org/1999/xlink" version="1.1"><rect x="0" y="0" width="900" height="600" fill="#001122"></rect><defs><linearGradient id="grad1_0" x1="33.3%" y1="0%" x2="100%" y2="100%"><stop offset="20%" stop-color="#f7770f" stop-opacity="1"></stop><stop offset="80%" stop-color="#f7770f" stop-opacity="1"></stop></linearGradient></defs><defs><linearGradient id="grad1_1" x1="33.3%" y1="0%" x2="100%" y2="100%"><stop offset="20%" stop-color="#f7770f" stop-opacity="1"></stop><stop offset="80%" stop-color="#8a2c67" stop-opacity="1"></stop></linearGradient></defs><defs><linearGradient id="grad1_2" x1="33.3%" y1="0%" x2="100%" y2="100%"><stop offset="20%" stop-color="#001122" stop-opacity="1"></stop><stop offset="80%" stop-color="#8a2c67" stop-opacity="1"></stop></linearGradient></defs><defs><linearGradient id="grad2_0" x1="0%" y1="0%" x2="66.7%" y2="100%"><stop offset="20%" stop-color="#f7770f" stop-opacity="1"></stop><stop offset="80%" stop-color="#f7770f" stop-opacity="1"></stop></linearGradient></defs><defs><linearGradient id="grad2_1" x1="0%" y1="0%" x2="66.7%" y2="100%"><stop offset="20%" stop-color="#8a2c67" stop-opacity="1"></stop><stop offset="80%" stop-color="#f7770f" stop-opacity="1"></stop></linearGradient></defs><defs><linearGradient id="grad2_2" x1="0%" y1="0%" x2="66.7%" y2="100%"><stop offset="20%" stop-color="#8a2c67" stop-opacity="1"></stop><stop offset="80%" stop-color="#001122" stop-opacity="1"></stop></linearGradient></defs><g transform="translate(900, 0)"><path d="M0 459.7C-59.1 453.8 -118.2 447.9 -175.9 424.7C-233.6 401.5 -289.9 361.1 -307.6 307.6C-325.3 254.1 -304.4 187.4 -323.4 133.9C-342.3 80.5 -401 40.2 -459.7 0L0 0Z" fill="#362753"></path><path d="M0 306.5C-39.4 302.5 -78.8 298.6 -117.3 283.1C-155.7 267.7 -193.3 240.8 -205.1 205.1C-216.9 169.4 -203 124.9 -215.6 89.3C-228.2 53.7 -267.3 26.8 -306.5 0L0 0Z" fill="#d53a52"></path><path d="M0 153.2C-19.7 151.3 -39.4 149.3 -58.6 141.6C-77.9 133.8 -96.6 120.4 -102.5 102.5C-108.4 84.7 -101.5 62.5 -107.8 44.6C-114.1 26.8 -133.7 13.4 -153.2 0L0 0Z" fill="#f7770f"></path></g><g transform="translate(0, 600)"><path d="M0 -459.7C51.6 -437 103.2 -414.4 164.6 -397.3C225.9 -380.2 296.9 -368.6 325.1 -325.1C353.2 -281.5 338.5 -206.1 353.8 -146.6C369.1 -87.1 414.4 -43.5 459.7 0L0 0Z" fill="#362753"></path><path d="M0 -306.5C34.4 -291.4 68.8 -276.3 109.7 -264.8C150.6 -253.4 197.9 -245.7 216.7 -216.7C235.5 -187.7 225.7 -137.4 235.9 -97.7C246.1 -58 276.3 -29 306.5 0L0 0Z" fill="#d53a52"></path><path d="M0 -153.2C17.2 -145.7 34.4 -138.1 54.9 -132.4C75.3 -126.7 99 -122.9 108.4 -108.4C117.7 -93.8 112.8 -68.7 117.9 -48.9C123 -29 138.1 -14.5 153.2 0L0 0Z" fill="#f7770f"></path></g></svg>